<mxfile host="app.diagrams.net" modified="2023-11-17T12:22:37.540Z" agent="Mozilla/5.0 (Windows NT 10.0; Win64; x64) AppleWebKit/537.36 (KHTML, like Gecko) Chrome/119.0.0.0 Safari/537.36" etag="0qtw3dfzPi5hf6MfY7gv" version="22.1.2" type="device">
  <diagram name="Page-1" id="i2-xyGPZIkTPctw5AbKy">
    <mxGraphModel dx="2049" dy="1071" grid="1" gridSize="10" guides="1" tooltips="1" connect="1" arrows="1" fold="1" page="1" pageScale="1" pageWidth="1169" pageHeight="827" math="0" shadow="0">
      <root>
        <mxCell id="0" />
        <mxCell id="1" parent="0" />
        <mxCell id="Pzb5s8xsfUUyD6UtB8I6-16" value="" style="group;movable=1;resizable=1;rotatable=1;deletable=1;editable=1;locked=0;connectable=1;" vertex="1" connectable="0" parent="1">
          <mxGeometry x="919" y="227" width="220" height="471" as="geometry" />
        </mxCell>
        <mxCell id="Pzb5s8xsfUUyD6UtB8I6-13" value="" style="group;movable=1;resizable=1;rotatable=1;deletable=1;editable=1;locked=0;connectable=1;" vertex="1" connectable="0" parent="Pzb5s8xsfUUyD6UtB8I6-16">
          <mxGeometry width="220" height="440" as="geometry" />
        </mxCell>
        <mxCell id="Pzb5s8xsfUUyD6UtB8I6-3" value="&lt;br&gt;Primary DB Instance" style="strokeWidth=2;html=1;shape=mxgraph.flowchart.database;whiteSpace=wrap;movable=1;resizable=1;rotatable=1;deletable=1;editable=1;locked=0;connectable=1;" vertex="1" parent="Pzb5s8xsfUUyD6UtB8I6-13">
          <mxGeometry x="25" width="70" height="90" as="geometry" />
        </mxCell>
        <mxCell id="Pzb5s8xsfUUyD6UtB8I6-4" value="" style="endArrow=classic;html=1;rounded=0;movable=1;resizable=1;rotatable=1;deletable=1;editable=1;locked=0;connectable=1;" edge="1" parent="Pzb5s8xsfUUyD6UtB8I6-13">
          <mxGeometry width="50" height="50" relative="1" as="geometry">
            <mxPoint x="59.5" y="110" as="sourcePoint" />
            <mxPoint x="59.5" y="150" as="targetPoint" />
          </mxGeometry>
        </mxCell>
        <mxCell id="Pzb5s8xsfUUyD6UtB8I6-5" value="Replication Lag" style="text;html=1;align=center;verticalAlign=middle;resizable=1;points=[];autosize=1;strokeColor=none;fillColor=none;movable=1;rotatable=1;deletable=1;editable=1;locked=0;connectable=1;" vertex="1" parent="Pzb5s8xsfUUyD6UtB8I6-13">
          <mxGeometry x="61" y="111" width="110" height="30" as="geometry" />
        </mxCell>
        <mxCell id="Pzb5s8xsfUUyD6UtB8I6-6" value="" style="rounded=1;whiteSpace=wrap;html=1;dashed=1;fillColor=none;movable=1;resizable=1;rotatable=1;deletable=1;editable=1;locked=0;connectable=1;" vertex="1" parent="Pzb5s8xsfUUyD6UtB8I6-13">
          <mxGeometry y="159.5" width="120" height="245" as="geometry" />
        </mxCell>
        <mxCell id="Pzb5s8xsfUUyD6UtB8I6-10" value="&lt;br&gt;DB" style="strokeWidth=2;html=1;shape=mxgraph.flowchart.database;whiteSpace=wrap;movable=1;resizable=1;rotatable=1;deletable=1;editable=1;locked=0;connectable=1;" vertex="1" parent="Pzb5s8xsfUUyD6UtB8I6-13">
          <mxGeometry x="25" y="181.5" width="70" height="90" as="geometry" />
        </mxCell>
        <mxCell id="Pzb5s8xsfUUyD6UtB8I6-11" value="DB" style="strokeWidth=2;html=1;shape=mxgraph.flowchart.database;whiteSpace=wrap;movable=1;resizable=1;rotatable=1;deletable=1;editable=1;locked=0;connectable=1;" vertex="1" parent="Pzb5s8xsfUUyD6UtB8I6-13">
          <mxGeometry x="30" y="301.5" width="70" height="90" as="geometry" />
        </mxCell>
        <mxCell id="Pzb5s8xsfUUyD6UtB8I6-12" value="Read Replicas" style="text;html=1;align=center;verticalAlign=middle;resizable=1;points=[];autosize=1;strokeColor=none;fillColor=none;movable=1;rotatable=1;deletable=1;editable=1;locked=0;connectable=1;" vertex="1" parent="Pzb5s8xsfUUyD6UtB8I6-13">
          <mxGeometry x="120" y="260" width="100" height="30" as="geometry" />
        </mxCell>
        <mxCell id="Pzb5s8xsfUUyD6UtB8I6-14" value="" style="rounded=0;whiteSpace=wrap;html=1;fillColor=none;dashed=1;movable=1;resizable=1;rotatable=1;deletable=1;editable=1;locked=0;connectable=1;" vertex="1" parent="Pzb5s8xsfUUyD6UtB8I6-13">
          <mxGeometry x="-30" y="-40" width="250" height="480" as="geometry" />
        </mxCell>
        <mxCell id="Pzb5s8xsfUUyD6UtB8I6-15" value="Database Architecture" style="text;html=1;align=center;verticalAlign=middle;resizable=1;points=[];autosize=1;strokeColor=none;fillColor=none;movable=1;rotatable=1;deletable=1;editable=1;locked=0;connectable=1;" vertex="1" parent="Pzb5s8xsfUUyD6UtB8I6-16">
          <mxGeometry x="20" y="441" width="140" height="30" as="geometry" />
        </mxCell>
        <mxCell id="Pzb5s8xsfUUyD6UtB8I6-39" value="" style="group" vertex="1" connectable="0" parent="1">
          <mxGeometry x="419" y="319" width="250" height="430" as="geometry" />
        </mxCell>
        <mxCell id="Pzb5s8xsfUUyD6UtB8I6-31" value="" style="rounded=0;whiteSpace=wrap;html=1;fillColor=none;dashed=1;" vertex="1" parent="Pzb5s8xsfUUyD6UtB8I6-39">
          <mxGeometry y="30" width="250" height="400" as="geometry" />
        </mxCell>
        <mxCell id="Pzb5s8xsfUUyD6UtB8I6-35" value="log-ingestor-with-query-interface" style="text;html=1;align=center;verticalAlign=middle;resizable=0;points=[];autosize=1;strokeColor=none;fillColor=none;" vertex="1" parent="Pzb5s8xsfUUyD6UtB8I6-39">
          <mxGeometry x="25" width="200" height="30" as="geometry" />
        </mxCell>
        <mxCell id="Pzb5s8xsfUUyD6UtB8I6-36" value="log search service" style="rounded=0;whiteSpace=wrap;html=1;" vertex="1" parent="Pzb5s8xsfUUyD6UtB8I6-39">
          <mxGeometry x="40" y="310" width="160" height="80" as="geometry" />
        </mxCell>
        <mxCell id="Pzb5s8xsfUUyD6UtB8I6-37" value="log publish service" style="rounded=0;whiteSpace=wrap;html=1;" vertex="1" parent="Pzb5s8xsfUUyD6UtB8I6-39">
          <mxGeometry x="40" y="190" width="160" height="80" as="geometry" />
        </mxCell>
        <mxCell id="Pzb5s8xsfUUyD6UtB8I6-38" value="log consume service" style="rounded=0;whiteSpace=wrap;html=1;" vertex="1" parent="Pzb5s8xsfUUyD6UtB8I6-39">
          <mxGeometry x="40" y="70" width="160" height="80" as="geometry" />
        </mxCell>
        <mxCell id="Pzb5s8xsfUUyD6UtB8I6-40" value="" style="group" vertex="1" connectable="0" parent="1">
          <mxGeometry x="28.99774375503624" y="479.00352941176476" width="195" height="137.0588235294117" as="geometry" />
        </mxCell>
        <mxCell id="Pzb5s8xsfUUyD6UtB8I6-21" value="" style="sketch=0;outlineConnect=0;fontColor=#232F3E;gradientColor=none;fillColor=#232F3D;strokeColor=none;dashed=0;verticalLabelPosition=bottom;verticalAlign=top;align=center;html=1;fontSize=12;fontStyle=0;aspect=fixed;pointerEvents=1;shape=mxgraph.aws4.client;movable=1;resizable=1;rotatable=1;deletable=1;editable=1;locked=0;connectable=1;" vertex="1" parent="Pzb5s8xsfUUyD6UtB8I6-40">
          <mxGeometry x="37.7288315874295" width="98.22299871575343" height="95.70847602739727" as="geometry" />
        </mxCell>
        <mxCell id="Pzb5s8xsfUUyD6UtB8I6-22" value="log ingestor Query Interface UI&lt;br&gt;&lt;font color=&quot;#007fff&quot;&gt;GET http://localhost:3000/search&lt;/font&gt;" style="text;html=1;align=center;verticalAlign=middle;resizable=0;points=[];autosize=1;strokeColor=none;fillColor=none;" vertex="1" parent="Pzb5s8xsfUUyD6UtB8I6-40">
          <mxGeometry x="-5" y="97.05882352941171" width="200" height="40" as="geometry" />
        </mxCell>
        <mxCell id="Pzb5s8xsfUUyD6UtB8I6-45" value="" style="endArrow=classic;html=1;dashed=1;edgeStyle=orthogonalEdgeStyle;curved=1;startArrow=classic;startFill=1;exitX=1;exitY=0.5;exitDx=0;exitDy=0;" edge="1" parent="1" source="Pzb5s8xsfUUyD6UtB8I6-36">
          <mxGeometry width="50" height="50" relative="1" as="geometry">
            <mxPoint x="689" y="669" as="sourcePoint" />
            <mxPoint x="909" y="509" as="targetPoint" />
            <Array as="points">
              <mxPoint x="769" y="669" />
              <mxPoint x="769" y="509" />
            </Array>
          </mxGeometry>
        </mxCell>
        <mxCell id="Pzb5s8xsfUUyD6UtB8I6-51" value="Read Log from Database" style="edgeLabel;html=1;align=center;verticalAlign=middle;resizable=0;points=[];" vertex="1" connectable="0" parent="Pzb5s8xsfUUyD6UtB8I6-45">
          <mxGeometry x="-0.123" y="11" relative="1" as="geometry">
            <mxPoint as="offset" />
          </mxGeometry>
        </mxCell>
        <mxCell id="Pzb5s8xsfUUyD6UtB8I6-48" value="" style="endArrow=classic;html=1;dashed=1;edgeStyle=orthogonalEdgeStyle;curved=1;startArrow=classic;startFill=1;" edge="1" parent="1">
          <mxGeometry width="50" height="50" relative="1" as="geometry">
            <mxPoint x="169" y="506.03" as="sourcePoint" />
            <mxPoint x="459" y="666.03" as="targetPoint" />
            <Array as="points">
              <mxPoint x="299" y="506" />
              <mxPoint x="299" y="666" />
            </Array>
          </mxGeometry>
        </mxCell>
        <mxCell id="Pzb5s8xsfUUyD6UtB8I6-50" value="HTTP GET" style="edgeLabel;html=1;align=center;verticalAlign=middle;resizable=0;points=[];" vertex="1" connectable="0" parent="Pzb5s8xsfUUyD6UtB8I6-48">
          <mxGeometry x="0.0123" relative="1" as="geometry">
            <mxPoint as="offset" />
          </mxGeometry>
        </mxCell>
        <mxCell id="Pzb5s8xsfUUyD6UtB8I6-55" value="" style="group" vertex="1" connectable="0" parent="1">
          <mxGeometry x="28.99774375503624" y="299.00352941176476" width="190" height="137.0588235294117" as="geometry" />
        </mxCell>
        <mxCell id="Pzb5s8xsfUUyD6UtB8I6-56" value="" style="sketch=0;outlineConnect=0;fontColor=#232F3E;gradientColor=none;fillColor=#232F3D;strokeColor=none;dashed=0;verticalLabelPosition=bottom;verticalAlign=top;align=center;html=1;fontSize=12;fontStyle=0;aspect=fixed;pointerEvents=1;shape=mxgraph.aws4.client;movable=1;resizable=1;rotatable=1;deletable=1;editable=1;locked=0;connectable=1;" vertex="1" parent="Pzb5s8xsfUUyD6UtB8I6-55">
          <mxGeometry x="37.7288315874295" width="98.22299871575343" height="95.70847602739727" as="geometry" />
        </mxCell>
        <mxCell id="Pzb5s8xsfUUyD6UtB8I6-57" value="log ingestor&lt;br&gt;&lt;font color=&quot;#007fff&quot;&gt;POST http://localhost:3000/&lt;/font&gt;" style="text;html=1;align=center;verticalAlign=middle;resizable=0;points=[];autosize=1;strokeColor=none;fillColor=none;" vertex="1" parent="Pzb5s8xsfUUyD6UtB8I6-55">
          <mxGeometry x="10" y="97.05882352941171" width="170" height="40" as="geometry" />
        </mxCell>
        <mxCell id="Pzb5s8xsfUUyD6UtB8I6-60" value="" style="endArrow=classic;html=1;dashed=1;edgeStyle=orthogonalEdgeStyle;curved=1;startArrow=none;startFill=0;" edge="1" parent="1">
          <mxGeometry width="50" height="50" relative="1" as="geometry">
            <mxPoint x="169" y="349" as="sourcePoint" />
            <mxPoint x="459" y="548.03" as="targetPoint" />
            <Array as="points">
              <mxPoint x="339" y="349" />
              <mxPoint x="339" y="548" />
            </Array>
          </mxGeometry>
        </mxCell>
        <mxCell id="Pzb5s8xsfUUyD6UtB8I6-61" value="HTTP POST" style="edgeLabel;html=1;align=center;verticalAlign=middle;resizable=0;points=[];" vertex="1" connectable="0" parent="Pzb5s8xsfUUyD6UtB8I6-60">
          <mxGeometry x="0.0123" relative="1" as="geometry">
            <mxPoint as="offset" />
          </mxGeometry>
        </mxCell>
        <mxCell id="Pzb5s8xsfUUyD6UtB8I6-66" value="" style="group" vertex="1" connectable="0" parent="1">
          <mxGeometry x="389" y="79" width="310" height="110" as="geometry" />
        </mxCell>
        <mxCell id="Pzb5s8xsfUUyD6UtB8I6-62" value="&lt;b&gt;&lt;font style=&quot;font-size: 15px;&quot;&gt;&lt;br&gt;&amp;nbsp; &amp;nbsp; &amp;nbsp; &amp;nbsp; &amp;nbsp; &amp;nbsp; &amp;nbsp; &amp;nbsp; &amp;nbsp; &amp;nbsp; &amp;nbsp; &amp;nbsp; &amp;nbsp; &amp;nbsp; &amp;nbsp; &amp;nbsp; &amp;nbsp; &amp;nbsp; + Kafka&amp;nbsp;REST Proxy&amp;nbsp; &amp;nbsp;&lt;/font&gt;&lt;/b&gt;" style="rounded=0;whiteSpace=wrap;html=1;fillColor=none;dashed=1;" vertex="1" parent="Pzb5s8xsfUUyD6UtB8I6-66">
          <mxGeometry width="310" height="110" as="geometry" />
        </mxCell>
        <mxCell id="Pzb5s8xsfUUyD6UtB8I6-64" value="" style="shape=image;verticalLabelPosition=bottom;verticalAlign=top;aspect=fixed;imageAspect=0;image=data:image/png,iVBORw0KGgoAAAANSUhEUgAAAdoAAAIEBAMAAABMFvJeAAAAG1BMVEVHcEwAAAAAAAAAAAAAAAAAAAAAAAAAAAAAAABp4cHsAAAACHRSTlMA4huBQ6hlyvu+waIAAA9cSURBVHja7J3Lc+PGEYfxJOdIleMyjpR2neKRNu0sjly7toKjbG+lcGRclQqOOqRSPEIvCn92VtELILrngRly2Y3pI7Ur6ptHd8/Mb3qCwJs3b968efPmzZs3b968efPmzZs3b968efPmzZs3b968efPmzZs3b968efPmbbx2MR8LafQha77Y9U9jgP1n82qX3FmTrGnZLW/YuOnaPeuebZoR4TZ9u2MLmwO0zRVT2LABbTzjmO9YFghts2QIO8FgWfpltGtZdi4Oy3DmSrq2aditiDIZbc08Qe7a9ZgGctNsRjSQuQ3lRA7LLOTuD+SzjHOyXHTQPn/5JCr5roQ6ZOunz865TtwEzBMXTCfutMV1A/c4UyfV+jjtD29mTqpGojAjN7VFRqxg6aaw/fIInM7ELUK7sGR4bDBBnZFguAxK0UAzZRiCQjSJSBjSCnwHijVtjdPOR0C75Uw72/9Rzi911KJdjop2M4J5W47KS2WcaW9GEIFCPPdnmF3g2XDKkDZGxyvHNVAr998LQRXHTUd0i4LliTW2kzpluS9VInuLFUtaAR8KJDxPcNu755dvHxc8zwom4BnIVEuLEF1cEHZTr/lUoiEiSn54aovPVN3Ul6k730s5UCdVdc98KU7cL/bNarV3OL+WJyW00o9Uobto5PkmNVwF7I2qZ2nhFnLaK6322dFb4moOZFCVP2MxlG90W2dNhHYho13qNg6Vc0+ZGu5Bv20uKSYYCpUjfVV+auCjJIpX8p1bm7g0KjM31pZiS8XMVNxyoTs2eajyNS+MxMYpNZmxfB2YDWRCR5+h1jRko8pfaHSUSpVP6FThXO1glar8OR3cuLdlI3fd/1flVzRXQo/2r5cRudTw3GtgSNASgMq9DTdVvryLprD7zajutMtpBex9yary5bSYKr8kqsqX026RUENVlS+nRRd3RE+2dWlrbH18y4Y24abKl9Km3NRGUlp2qnwprZYqf86PtsbXvWOgpalTt6dd8qOdeVq2tCOft6R9cq2gZaHKf/e6pPt2bZRLEVTlT7aKAztOefJHZfGhmM8aKFef8EVsVPmljioI3aIgtneRa53fZjxU+Qu9I0psz5GWKl9TZZIgyqKE1gmu5IxyBzqpbidWpM4KpLLOS8yRzYFZSyAApXpaihwRg01olfbcaqkL+gPgYd1vq5N3UkJLew4KV++1VPlUXNRbfynl+ESclNBBmGjCnvy0zdQMdaQJe/LnmTpD9LpsmAzkonFod+R9lIld0vdR+nbyiVRpjGSiyj8xi4xhlymnYPuPL8n++1IWYkqqXdvzyC/ruyTDr0IlZPWre3/wXxQTeifb6Dh1h7wvOG+HyyjDL/wQfcZBSK51TfChGmvdCTvxabtWeLC3n+up8k962t4oJnV7f+2c4PWJyOQOW9cJfU/v2lOqUI3LGmNCToItFA9sCGnXf3r22vcbErAdJwX51IkinEbvVqtfAipWqtK+jNOrBcqXYgRXWqUbo15ALFGzMHqRIlWP0y2fKlOhegHDqKaWUCdDgict8k+mfJ6qE+p9h5jPq4sLtcONWNLuNEIycdpC49os1YvEfcs9radlQVuNinahscBhGYFuRxVvsVxqwofWME9es6cVfFYFGuvbBZ8Vn8beRcmH1mxf6oE4baA8WI8plpXVoIV9EKv9ZOVZQc6JtlBUnoxUsoro4oJOXBKKoSykR7TJb08/+C8R4KlC7SQ9zG5Ng/+QC0FAPE0lx+8TgtV15VK2rmTqeo6Ept4PCexe9Ds3xMsjxyRrJwtJWfoILxgc0awmnEouoOa43K0kWpQUlypKqvQLqsWT95k+B7Lue2qOiGzZ81433f/5+PGvspLBBdmy55DW+FqqPZ8nhGvab41vShSEa9o7vTNyT3EoD7eTd8ulS9qTj7mh086llmCAXRZzudqm46fW3ZUw6Zr2WjcvF0xu8qk7d72/h9WqaX9Grqa93qVawHn//vj5R2I17YWen82Q6Kq6nUAq5tbYGn7z8gNiNe0netkg+romsbMxoZcMpkgiQa2mfa5X0oFLTXvJfVt4fYiNjZoCbZTp3DJlU9MewpVUwK6xmUClpn0JJg+I715jbo5MTftPQPWojjGraf/vty76UboW5lXTvlaEZV/T3te0Z0+75Ec787S+pr33yeRoxxBvQzz3J51L+befmK2BlLQRur6lVtNehzZAtdlEC0XIabc8atpr0lYsatrr0iI3iBJVBRiatCGHmva6exddTcocmLW0AtALzu1c5ZTfYk1Mq87hG6tSPZ/3dyW/p6ZkhToJThP2jsceVh+o1bQHcl1UPa8U19DsWczjKGBviPknhXp+QVwv9Wya6vmUxUDWVs9zGMiJtgZXKsBZ0qDVV88nlPXJKoR7/YYhk1qYqOcT6j5KVsf/Vr9piHStMFLPT2jP2sBQcixIO2TjjGFLOWlUZINLLRdOphyGuXoeEN7PicCq3uyClkLnBAv4g07nWks9353r12Rg9/Srm8eP/q5WzydbmqWVof0KHfX8ry817deEYBNQPS900obo/epvFwEpEyzU80NoETe05kNbMVHP61nGRD1v6pJ5nEDrrm1rLA7fsqGNuSlHdJd72j+ha+zU85rhlomaT5O2xmPTGGi3nGln+FJwPSrape9bZvO29D6ZC+3NCOLtuHKp6ajy5HGtgSJ03zhn8xSfzhYFx72LoBnVvpTGnuOMDy2ynxxTVc/r09Zg13I6K0jAY1jB6RUKxE29gsUUFRValvfPnT8Rq342cOI+8q5+ICqpMM0diVYtHDxx6Qr6dI2Jel7TeKjn3QzlmhutmYaVVTpFVIdrYMVofJQ85F4HDK3CaGccaZPxzFpJhrHhSQuXJr1hCgtqsu8DttbPH0k81jXUztlnUZLefZgHvK2tnt8F/O3ds2v+dh2MwqKL1U8XgTdv3rx58+bNmzdv3rx58+bNmzdv3rx58+bNmzdv3rx58+bNmzdvAy16v1r9fDUO1k/Z6QiW/1g92+Ywvz/tyrMnL1+3Wn+NQXbgCy3ne2J08VUL9kSHlcaf70vvQ8a0aTMm2mZMtGJUtM2YaKejoi1GRduMiTYeFa0YFW0BXbVmS9t+MOb2z4s5b1rw5jFX2ggsIcaVNgYruHClTcEbm1xpQ3CfgCutAF+k4E+7HBXt3NOypQ08LSHax6OOX+bHo43+6uZlrCG0z0cdzfWPR6GNPjSuXj0zp23vEcu+3xVt+9G73WFo20hXnf+QQxVayi6ZwEuJIbQCq4sYlVC9haElixHaAqtLUoIFafJunSWBFyVCaLECawlcyGlohRiYNsG6toRf/bSlFUhpkAgpCuOWFikWDFaTunVAWyLltDNkRrilRQZWiNXNsqTFnvCrsOp6TmmRrk3Quo2WtDnctVP0+W+ntEjXlmjhRjvaBKmdhxVhu3JKi3TtFC/KaUeLBAC0WOTOKW0Gdy1ezHBmRwt3raRW5NohbQp3raQu566yoRVw11aSmqcOaUvTrm0aq75FyiLKyoC6o03gcKCopzucVhgPpeHV9vq0BRwOqkPRNuZDyR1thET65kC0U9MA4JRWwF0rrGmRNRDiJYrj0CKRfj+z+G61+jmT1prVW98iAaA3lL5Z9SrmO6BFwsHeYuT2aZnZLn43kLaAu3ZvIH9++vSda1qka0OkNHJhSZsgXbtA6kOWTmlDZBVfNMiKt7Cjxd4SyrBimKVLWsRndKbRnWQzw5QWYUqwxt2fUla0mM9I8ML8iQ0tEgA6E2dv523qjhZ7zimU1DMXFrRY7daFpKhr6Yo20Xiqq18seDit0JgetWyH14q2wL5E9u2dzjWj3WIjRlqvt3REi05O6XMayVDaFBsxSXePT9K6FrTo03KJ/NdvB9KWWNdO5c93uKFFezCWv7kghtEmqDMQ8pdZche0Av0lim+fDKNFvUTLf9zLT5iG017hrkHIplFnaBnQbnBnUMqv7SQOaP9o0LOkQnFpqBhCm+OTM1M8VuKAVuL1c8W3iyG0Ej+velCpcknbOyXNFNXqUzva2pRWuKS9NP32xI4W/5t2h6eV5IbYGxNWtL2ujVV3C2OHtJc4DKYEyGxoA2PayCHtgF+eW9D2nxadKrUgDmlr/N/UB6Dty03UShSHtA/mtAsb2htz2syhT97oKVFc0TY47foItPWRaWco7fxgtBna2Iemvf0KtFeYHkyDthhA+7HBoI4xkmclFlYP45M36NQ5hk+eoatYNW1pt759+Aq0AdbY6uxi0Gp+ikWBVDVzIhe0OdbYysxx2L4U1rrHyJNnbX+5gWEeHK6Blu09cuTXIbSh4x3WGlnfqtraiDZWnvXcH2zF1909R/aJ1u72Lpbt1t0ZracLJ7QpsuyrsEhssy+1xPcyG0V64ejUC9mIWygmUjaQNkGmzla+DxY5okUaW8gnUjT4jK+E/V8lb93QEe0EbuxQPpFCF+e3G7B1H6RZue3ZfAb24qSRxvvCxdl8DR8GzA92DtT9njX4+3fybzelzcFRk0pPvWJntIlShicdyMa0oUqs+yAdyLYKohLkqmSNXdropeAoINu1Cg6jDrsEJ1IjOYOyU4fBDXgnOeFzqfy7AydSr3NzV8q/GibaSLrWmraCGruzezVHlmeDaAPwjCLFjy4WTmlDsLEzbBspstQ5wlEgQolix2pssFUXmBiutKWNla0ru1rhUnu+RrYKX4NuVNpqWDtgiCtqfsdg7Wnhxt6Derpn/Mlen4xEgb1bDE/3fKMfnKuxkVQi3/+es7OsaVzQJuAUafS+z54WbGyhp3wfQAsnNEdS2nfWALLGdkYLitLSY9G2tW2mjT2EFo4CR6O1aOxBtBUUBcSxaCMwk9hKvrSyog01okD3mMwlbdtvzHUae2dHC0cBydSpndIKw8ae5Xa0BRQFJvj3zZ3SwsJFfOYGlrQpGAXQwXTnuEpABa6mS2xg2dIieyMY7aVj2ino9bSrBBjTCnCbD7m5uHNdAQJpbN0KEMa0E3g9WTWI5tQx7aJRjfDOn2dL214IzQN51KsD57QpsnjP4XzCmhaOAkGUwZIUx7QBtjOTg1pma1rsJlIP995OiXB99mzd47vFy8dnWY0dDDSvFZCql3/8XYv29Re0//v09dPu7tpvZ8gPSkhs9PpHG9Ka2+R/7dOxDYAwDEVBF5mBOgpiIASLZP+Gwk0WwEjoboGnL9nLM23xvmMZe0e9dubVXr2mt8/sfbE1jVHc6wEAAAAAAAAAAADwAw+hh8fD0S1SKwAAAABJRU5ErkJggg==;" vertex="1" parent="Pzb5s8xsfUUyD6UtB8I6-66">
          <mxGeometry x="20" y="20" width="73.45" height="80" as="geometry" />
        </mxCell>
        <mxCell id="Pzb5s8xsfUUyD6UtB8I6-67" value="" style="endArrow=classic;html=1;dashed=1;edgeStyle=orthogonalEdgeStyle;curved=1;startArrow=none;startFill=0;exitX=1.003;exitY=0.56;exitDx=0;exitDy=0;exitPerimeter=0;" edge="1" parent="1" source="Pzb5s8xsfUUyD6UtB8I6-38">
          <mxGeometry width="50" height="50" relative="1" as="geometry">
            <mxPoint x="619" y="436.06" as="sourcePoint" />
            <mxPoint x="909" y="276.06" as="targetPoint" />
            <Array as="points">
              <mxPoint x="620" y="436" />
              <mxPoint x="769" y="436" />
              <mxPoint x="769" y="276" />
            </Array>
          </mxGeometry>
        </mxCell>
        <mxCell id="Pzb5s8xsfUUyD6UtB8I6-68" value="Write Log to Database" style="edgeLabel;html=1;align=center;verticalAlign=middle;resizable=0;points=[];" vertex="1" connectable="0" parent="Pzb5s8xsfUUyD6UtB8I6-67">
          <mxGeometry x="-0.123" y="11" relative="1" as="geometry">
            <mxPoint as="offset" />
          </mxGeometry>
        </mxCell>
        <mxCell id="Pzb5s8xsfUUyD6UtB8I6-69" value="" style="endArrow=classic;html=1;dashed=1;edgeStyle=orthogonalEdgeStyle;curved=1;startArrow=none;startFill=0;entryX=0;entryY=0.5;entryDx=0;entryDy=0;exitX=0;exitY=0.455;exitDx=0;exitDy=0;exitPerimeter=0;" edge="1" parent="1" source="Pzb5s8xsfUUyD6UtB8I6-62" target="Pzb5s8xsfUUyD6UtB8I6-38">
          <mxGeometry width="50" height="50" relative="1" as="geometry">
            <mxPoint x="379" y="129" as="sourcePoint" />
            <mxPoint x="369" y="259" as="targetPoint" />
            <Array as="points">
              <mxPoint x="179" y="129" />
              <mxPoint x="179" y="299" />
              <mxPoint x="389" y="299" />
              <mxPoint x="389" y="429" />
            </Array>
          </mxGeometry>
        </mxCell>
        <mxCell id="Pzb5s8xsfUUyD6UtB8I6-70" value="Consumer : Consumes log from topic" style="edgeLabel;html=1;align=center;verticalAlign=middle;resizable=0;points=[];" vertex="1" connectable="0" parent="Pzb5s8xsfUUyD6UtB8I6-69">
          <mxGeometry x="-0.123" y="11" relative="1" as="geometry">
            <mxPoint x="69" y="-76" as="offset" />
          </mxGeometry>
        </mxCell>
        <mxCell id="Pzb5s8xsfUUyD6UtB8I6-71" value="" style="endArrow=classic;html=1;dashed=1;edgeStyle=orthogonalEdgeStyle;curved=1;startArrow=none;startFill=0;exitX=1;exitY=0.5;exitDx=0;exitDy=0;entryX=1.011;entryY=0.455;entryDx=0;entryDy=0;entryPerimeter=0;" edge="1" parent="1" source="Pzb5s8xsfUUyD6UtB8I6-37" target="Pzb5s8xsfUUyD6UtB8I6-62">
          <mxGeometry width="50" height="50" relative="1" as="geometry">
            <mxPoint x="619" y="549" as="sourcePoint" />
            <mxPoint x="909" y="389" as="targetPoint" />
            <Array as="points">
              <mxPoint x="839" y="549" />
              <mxPoint x="839" y="129" />
            </Array>
          </mxGeometry>
        </mxCell>
        <mxCell id="Pzb5s8xsfUUyD6UtB8I6-72" value="Producer : Publish log to topic" style="edgeLabel;html=1;align=center;verticalAlign=middle;resizable=0;points=[];" vertex="1" connectable="0" parent="Pzb5s8xsfUUyD6UtB8I6-71">
          <mxGeometry x="-0.123" y="11" relative="1" as="geometry">
            <mxPoint x="-29" y="-229" as="offset" />
          </mxGeometry>
        </mxCell>
        <mxCell id="Pzb5s8xsfUUyD6UtB8I6-73" value="" style="rounded=0;whiteSpace=wrap;html=1;fillColor=none;" vertex="1" parent="1">
          <mxGeometry x="10" y="10" width="1150" height="810" as="geometry" />
        </mxCell>
      </root>
    </mxGraphModel>
  </diagram>
</mxfile>
